<svg xmlns="http://www.w3.org/2000/svg" viewBox="0 0 600 720" width="600" height="720">
  <defs>
    <!-- Parchment background -->
    <radialGradient id="parchmentGrad" cx="50%" cy="40%" r="70%">
      <stop offset="0%" stop-color="#FFF9F0"/>
      <stop offset="60%" stop-color="#FAEFD8"/>
      <stop offset="100%" stop-color="#F5E6C8"/>
    </radialGradient>

    <!-- Grain noise texture -->
    <filter id="grain" x="0%" y="0%" width="100%" height="100%">
      <feTurbulence type="fractalNoise" baseFrequency="0.8" numOctaves="3" result="noise"/>
      <feColorMatrix type="matrix" values="1 0 0 0 0  0 1 0 0 0  0 0 1 0 0  0 0 0 0.04 0" in="noise" result="coloredNoise"/>
      <feBlend mode="multiply" in="SourceGraphic" in2="coloredNoise"/>
    </filter>

    <!-- Soft shadow for manuscript depth -->
    <filter id="softShadow" x="-30%" y="-30%" width="160%" height="160%">
      <feDropShadow dx="0" dy="3" stdDeviation="5" flood-color="#3E2A1F" flood-opacity="0.10"/>
    </filter>

    <!-- Gold glow -->
    <radialGradient id="goldGlow" cx="50%" cy="50%" r="50%">
      <stop offset="0%" stop-color="#F4C77B" stop-opacity="0.35"/>
      <stop offset="50%" stop-color="#E6C97A" stop-opacity="0.12"/>
      <stop offset="100%" stop-color="#C9A24D" stop-opacity="0"/>
    </radialGradient>

    <!-- Node gradients -->
    <radialGradient id="ganitaGrad" cx="30%" cy="30%" r="70%">
      <stop offset="0%" stop-color="#7A9BC8"/>
      <stop offset="100%" stop-color="#4F6FA8"/>
    </radialGradient>
    <radialGradient id="horaGrad" cx="30%" cy="30%" r="70%">
      <stop offset="0%" stop-color="#D86A50"/>
      <stop offset="100%" stop-color="#A23A1E"/>
    </radialGradient>
    <radialGradient id="samhitaGrad" cx="30%" cy="30%" r="70%">
      <stop offset="0%" stop-color="#5AAF7A"/>
      <stop offset="100%" stop-color="#3A8C5A"/>
    </radialGradient>

    <!-- Gold thread gradient -->
    <linearGradient id="threadGrad" x1="0%" y1="0%" x2="100%" y2="100%">
      <stop offset="0%" stop-color="#E6C97A"/>
      <stop offset="50%" stop-color="#C9A24D"/>
      <stop offset="100%" stop-color="#9C7A2F"/>
    </linearGradient>

    <!-- Mandala petal -->
    <path id="petal" d="M0,0 C4,-12 8,-18 0,-28 C-8,-18 -4,-12 0,0" fill="#C9A24D" fill-opacity="0.25"/>
  </defs>

  <!-- Base parchment with grain -->
  <rect width="600" height="720" fill="url(#parchmentGrad)" filter="url(#grain)" rx="4"/>

  <!-- Decorative border: outer fine line -->
  <rect x="18" y="18" width="564" height="684" fill="none" stroke="#C9A24D" stroke-width="0.8" stroke-opacity="0.35" rx="2"/>
  <!-- Decorative border: inner fine line -->
  <rect x="28" y="28" width="544" height="664" fill="none" stroke="#C9A24D" stroke-width="0.5" stroke-opacity="0.22" rx="1"/>

  <!-- Corner ornaments: top-left -->
  <g transform="translate(28,28)">
    <circle cx="0" cy="0" r="16" fill="none" stroke="#C9A24D" stroke-width="1" stroke-opacity="0.4"/>
    <path d="M-12,0 Q-6,-6 0,-12 Q6,-6 12,0" fill="none" stroke="#C9A24D" stroke-width="1.2" stroke-opacity="0.5"/>
    <circle cx="0" cy="0" r="3" fill="#C9A24D" fill-opacity="0.3"/>
  </g>
  <!-- Corner ornaments: top-right -->
  <g transform="translate(572,28)">
    <circle cx="0" cy="0" r="16" fill="none" stroke="#C9A24D" stroke-width="1" stroke-opacity="0.4"/>
    <path d="M-12,0 Q-6,-6 0,-12 Q6,-6 12,0" fill="none" stroke="#C9A24D" stroke-width="1.2" stroke-opacity="0.5"/>
    <circle cx="0" cy="0" r="3" fill="#C9A24D" fill-opacity="0.3"/>
  </g>
  <!-- Corner ornaments: bottom-left -->
  <g transform="translate(28,692)">
    <circle cx="0" cy="0" r="16" fill="none" stroke="#C9A24D" stroke-width="1" stroke-opacity="0.4"/>
    <path d="M-12,0 Q-6,6 0,12 Q6,6 12,0" fill="none" stroke="#C9A24D" stroke-width="1.2" stroke-opacity="0.5"/>
    <circle cx="0" cy="0" r="3" fill="#C9A24D" fill-opacity="0.3"/>
  </g>
  <!-- Corner ornaments: bottom-right -->
  <g transform="translate(572,692)">
    <circle cx="0" cy="0" r="16" fill="none" stroke="#C9A24D" stroke-width="1" stroke-opacity="0.4"/>
    <path d="M-12,0 Q-6,6 0,12 Q6,6 12,0" fill="none" stroke="#C9A24D" stroke-width="1.2" stroke-opacity="0.5"/>
    <circle cx="0" cy="0" r="3" fill="#C9A24D" fill-opacity="0.3"/>
  </g>

  <!-- Title area -->
  <text x="300" y="70" text-anchor="middle" font-family="'Tiro Devanagari Hindi', 'Nirmala UI', serif" font-size="28" fill="#7A5E1E" font-weight="400" letter-spacing="0.04em">त्रि-स्कन्ध</text>
  <text x="300" y="100" text-anchor="middle" font-family="'Cormorant Garamond', 'Crimson Pro', serif" font-size="20" fill="#9C7A2F" font-style="italic" font-weight="500">The Three Skandhas</text>
  <line x1="240" y1="115" x2="360" y2="115" stroke="#C9A24D" stroke-width="0.8" stroke-opacity="0.5"/>

  <!-- Triangle glows behind nodes -->
  <circle cx="180" cy="420" r="70" fill="url(#goldGlow)"/>
  <circle cx="300" cy="200" r="70" fill="url(#goldGlow)"/>
  <circle cx="420" cy="420" r="70" fill="url(#goldGlow)"/>

  <!-- Golden threads with ornamental beads -->
  <!-- Thread 1: Gaṇita → Horā -->
  <line x1="180" y1="420" x2="300" y2="200" stroke="url(#threadGrad)" stroke-width="2.2" stroke-linecap="round" stroke-opacity="0.65"/>
  <!-- Thread 2: Horā → Saṁhitā -->
  <line x1="300" y1="200" x2="420" y2="420" stroke="url(#threadGrad)" stroke-width="2.2" stroke-linecap="round" stroke-opacity="0.65"/>
  <!-- Thread 3: Saṁhitā → Gaṇita -->
  <line x1="420" y1="420" x2="180" y2="420" stroke="url(#threadGrad)" stroke-width="2.2" stroke-linecap="round" stroke-opacity="0.65"/>

  <!-- Beads on threads -->
  <circle cx="240" cy="310" r="5" fill="#C9A24D" fill-opacity="0.6"/>
  <circle cx="360" cy="310" r="5" fill="#C9A24D" fill-opacity="0.6"/>
  <circle cx="300" cy="420" r="5" fill="#C9A24D" fill-opacity="0.6"/>

  <!-- ═══════════════════════════════════════ -->
  <!-- GAṆITA NODE (bottom-left, Indigo)      -->
  <!-- ═══════════════════════════════════════ -->
  <g transform="translate(180,420)" filter="url(#softShadow)">
    <!-- Outer ring -->
    <circle cx="0" cy="0" r="52" fill="none" stroke="#4F6FA8" stroke-width="1.5" stroke-opacity="0.35"/>
    <circle cx="0" cy="0" r="48" fill="#4F6FA8" fill-opacity="0.08"/>
    <!-- Inner circle -->
    <circle cx="0" cy="0" r="40" fill="url(#ganitaGrad)" fill-opacity="0.18"/>
    <circle cx="0" cy="0" r="36" fill="none" stroke="#4F6FA8" stroke-width="1.8" stroke-opacity="0.5"/>
    <!-- Mandala ring -->
    <g opacity="0.4">
      <use href="#petal" transform="rotate(0) translate(0,-30)"/>
      <use href="#petal" transform="rotate(30) translate(0,-30)"/>
      <use href="#petal" transform="rotate(60) translate(0,-30)"/>
      <use href="#petal" transform="rotate(90) translate(0,-30)"/>
      <use href="#petal" transform="rotate(120) translate(0,-30)"/>
      <use href="#petal" transform="rotate(150) translate(0,-30)"/>
      <use href="#petal" transform="rotate(180) translate(0,-30)"/>
      <use href="#petal" transform="rotate(210) translate(0,-30)"/>
      <use href="#petal" transform="rotate(240) translate(0,-30)"/>
      <use href="#petal" transform="rotate(270) translate(0,-30)"/>
      <use href="#petal" transform="rotate(300) translate(0,-30)"/>
      <use href="#petal" transform="rotate(330) translate(0,-30)"/>
    </g>
    <!-- Center glyph -->
    <text x="0" y="8" text-anchor="middle" font-family="'Tiro Devanagari Hindi', serif" font-size="24" fill="#2F4778" font-weight="700">ग</text>
  </g>

  <!-- Gaṇita label -->
  <text x="180" y="510" text-anchor="middle" font-family="'Cormorant Garamond', serif" font-size="22" fill="#2F4778" font-style="italic" font-weight="600">Gaṇita</text>
  <text x="180" y="535" text-anchor="middle" font-family="'Inter', sans-serif" font-size="13" fill="#5C4A2A" letter-spacing="0.10em" font-weight="600">FOUNDATIONAL SUBSTRATE</text>
  <!-- Gaṇita icon hint: geometric instruments -->
  <g transform="translate(180,555)" opacity="0.35">
    <circle cx="0" cy="0" r="14" fill="none" stroke="#2F4778" stroke-width="1.2"/>
    <line x1="-10" y1="0" x2="10" y2="0" stroke="#2F4778" stroke-width="0.8"/>
    <line x1="0" y1="-10" x2="0" y2="10" stroke="#2F4778" stroke-width="0.8"/>
  </g>

  <!-- ═══════════════════════════════════════ -->
  <!-- HORĀ NODE (top, Vermilion-gold)        -->
  <!-- ═══════════════════════════════════════ -->
  <g transform="translate(300,200)" filter="url(#softShadow)">
    <!-- Outer ring -->
    <circle cx="0" cy="0" r="52" fill="none" stroke="#A23A1E" stroke-width="1.5" stroke-opacity="0.35"/>
    <circle cx="0" cy="0" r="48" fill="#A23A1E" fill-opacity="0.06"/>
    <!-- Inner circle -->
    <circle cx="0" cy="0" r="40" fill="url(#horaGrad)" fill-opacity="0.18"/>
    <circle cx="0" cy="0" r="36" fill="none" stroke="#A23A1E" stroke-width="1.8" stroke-opacity="0.5"/>
    <!-- Mandala ring -->
    <g opacity="0.4">
      <use href="#petal" transform="rotate(0) translate(0,-30)"/>
      <use href="#petal" transform="rotate(30) translate(0,-30)"/>
      <use href="#petal" transform="rotate(60) translate(0,-30)"/>
      <use href="#petal" transform="rotate(90) translate(0,-30)"/>
      <use href="#petal" transform="rotate(120) translate(0,-30)"/>
      <use href="#petal" transform="rotate(150) translate(0,-30)"/>
      <use href="#petal" transform="rotate(180) translate(0,-30)"/>
      <use href="#petal" transform="rotate(210) translate(0,-30)"/>
      <use href="#petal" transform="rotate(240) translate(0,-30)"/>
      <use href="#petal" transform="rotate(270) translate(0,-30)"/>
      <use href="#petal" transform="rotate(300) translate(0,-30)"/>
      <use href="#petal" transform="rotate(330) translate(0,-30)"/>
    </g>
    <!-- Center glyph -->
    <text x="0" y="8" text-anchor="middle" font-family="'Tiro Devanagari Hindi', serif" font-size="24" fill="#7A2A14" font-weight="700">ह</text>
  </g>

  <!-- Horā label -->
  <text x="300" y="145" text-anchor="middle" font-family="'Cormorant Garamond', serif" font-size="24" fill="#7A2A14" font-style="italic" font-weight="600">Horā</text>
  <text x="300" y="122" text-anchor="middle" font-family="'Inter', sans-serif" font-size="13" fill="#5C4A2A" letter-spacing="0.10em" font-weight="600">CENTRE OF MODERN PRACTICE</text>
  <!-- Horā icon hint: human figure / natal chart -->
  <g transform="translate(300,160)" opacity="0.35">
    <circle cx="0" cy="-4" r="5" fill="none" stroke="#7A2A14" stroke-width="1"/>
    <path d="M-8,12 Q0,2 8,12" fill="none" stroke="#7A2A14" stroke-width="1"/>
  </g>

  <!-- ═══════════════════════════════════════ -->
  <!-- SAṀHITĀ NODE (bottom-right, Jade)      -->
  <!-- ═══════════════════════════════════════ -->
  <g transform="translate(420,420)" filter="url(#softShadow)">
    <!-- Outer ring -->
    <circle cx="0" cy="0" r="52" fill="none" stroke="#3A8C5A" stroke-width="1.5" stroke-opacity="0.35"/>
    <circle cx="0" cy="0" r="48" fill="#3A8C5A" fill-opacity="0.06"/>
    <!-- Inner circle -->
    <circle cx="0" cy="0" r="40" fill="url(#samhitaGrad)" fill-opacity="0.18"/>
    <circle cx="0" cy="0" r="36" fill="none" stroke="#3A8C5A" stroke-width="1.8" stroke-opacity="0.5"/>
    <!-- Mandala ring -->
    <g opacity="0.4">
      <use href="#petal" transform="rotate(0) translate(0,-30)"/>
      <use href="#petal" transform="rotate(30) translate(0,-30)"/>
      <use href="#petal" transform="rotate(60) translate(0,-30)"/>
      <use href="#petal" transform="rotate(90) translate(0,-30)"/>
      <use href="#petal" transform="rotate(120) translate(0,-30)"/>
      <use href="#petal" transform="rotate(150) translate(0,-30)"/>
      <use href="#petal" transform="rotate(180) translate(0,-30)"/>
      <use href="#petal" transform="rotate(210) translate(0,-30)"/>
      <use href="#petal" transform="rotate(240) translate(0,-30)"/>
      <use href="#petal" transform="rotate(270) translate(0,-30)"/>
      <use href="#petal" transform="rotate(300) translate(0,-30)"/>
      <use href="#petal" transform="rotate(330) translate(0,-30)"/>
    </g>
    <!-- Center glyph -->
    <text x="0" y="8" text-anchor="middle" font-family="'Tiro Devanagari Hindi', serif" font-size="24" fill="#2A6A40" font-weight="700">स</text>
  </g>

  <!-- Saṁhitā label -->
  <text x="420" y="510" text-anchor="middle" font-family="'Cormorant Garamond', serif" font-size="22" fill="#2A6A40" font-style="italic" font-weight="600">Saṁhitā</text>
  <text x="420" y="535" text-anchor="middle" font-family="'Inter', sans-serif" font-size="13" fill="#5C4A2A" letter-spacing="0.10em" font-weight="600">ENCYCLOPAEDIC BREADTH</text>
  <!-- Saṁhitā icon hint: cityscape / nature -->
  <g transform="translate(420,555)" opacity="0.35">
    <rect x="-8" y="-6" width="6" height="12" fill="none" stroke="#2A6A40" stroke-width="1"/>
    <rect x="-1" y="-10" width="6" height="16" fill="none" stroke="#2A6A40" stroke-width="1"/>
    <rect x="6" y="-4" width="6" height="10" fill="none" stroke="#2A6A40" stroke-width="1"/>
  </g>

  <!-- Bottom caption -->
  <text x="300" y="632" text-anchor="middle" font-family="'Cormorant Garamond', serif" font-size="18" fill="#5C4A2A" font-style="italic" line-height="1.5">
    Every classical Jyotiṣa text maps onto one or more of these three skandhas
  </text>
  <text x="300" y="656" text-anchor="middle" font-family="'Cormorant Garamond', serif" font-size="16" fill="#7A6B5A" font-style="italic">
    BPHS Adhyāya 1.1-3 · tri-skandhaṁ jyotiṣaṁ horā gaṇitaṁ saṁhitā tathā
  </text>

  <!-- Gold leaf divider at bottom -->
  <line x1="200" y1="678" x2="400" y2="678" stroke="url(#threadGrad)" stroke-width="1.5" stroke-opacity="0.5"/>
</svg>